<?xml version="1.0"?>
<svg version="1.1" xmlns="http://www.w3.org/2000/svg" width="768" height="768" viewBox="0 0 768 768">
  <title>Griffino Primary Transparent Logo</title>
  <desc>P0 no-badge full-color logo on transparent background.</desc>
  <path d="M0 0 C5 5 5 5 9.8 11.7 C14.2 17.9 18.8 23.4 24 29 C25 30.1 25.9 31.3 26.9 32.4 C32.5 38.7 38.5 44.6 44.4 50.6 C45.6 51.8 46.8 52.9 48 54.2 C53.9 60 59.7 65.7 66 71 C73.2 77.2 80.5 83.4 87.7 89.7 C93.7 94.9 99.8 100 106 105 C107.9 106.6 109.9 108.2 111.9 109.8 C115.2 112.6 118.6 115.3 122 118 C121.6 122.6 121.6 122.6 120 129 C116.5 145.3 113.7 160.2 113.7 176.9 C113.7 178.3 113.7 178.3 113.6 185.6 C114.2 197.9 117.1 208.8 120.9 220.4 C124.7 232.5 127.6 244.6 130 257 C130.3 258.3 130.3 258.3 131.6 264.9 C136.4 293.1 138.1 321.5 134 350 C133.8 352.5 133.5 355 133.2 357.6 C131.9 364.3 130 367.6 126 373 C125.5 374.5 125.5 374.5 123 382 C119.7 382 116.4 382 113 382 C113 373 113 373 117 365 C112 368 112 368 108 375 C107.7 377.3 107.3 379.6 107 382 C102.4 382 97.8 382 93 382 C93 373.4 93.2 368.2 98 361 C91 365.7 88.5 368.6 86.8 376.9 C86.5 378.6 86.3 380.3 86 382 C82.7 382 79.4 382 76 382 C74 378 74 378 74 370 C77 362.4 80.4 357.7 87 353 C94.6 350.2 101.2 349.6 109.3 349.8 C111.4 349.8 113.5 349.8 115.6 349.8 C121 350 121 350 126 351 C127.8 325.6 127.6 300.3 125 275 C124.8 273 124.6 270.9 124.4 268.8 C124 263.9 123.5 258.9 123 254 C121 254.3 119 254.7 117 255 C89.2 256.1 71 243.4 50.7 225.4 C49.1 224 47.6 222.5 46 221 C46 220.7 46 220.3 46 220 C53.3 220.3 53.3 220.3 90 222 C84.7 220.2 79.3 218.3 74 216.5 C72.4 216 70.8 215.4 69.2 214.8 C58.1 211 47 207.4 35.8 204 C18.6 196.8 10.7 178.1 4.1 161.9 C2 156 2 156 1 150 C9.6 152.9 17.5 156.4 25.8 160.2 C46.4 169.7 67.1 179.1 88 188 C65.8 173.1 43.4 158.8 20.4 145 C5.2 135.5 -0.5 129.5 -6 112 C-8.2 100.5 -9.3 89.7 -9 78 C-2.9 80.4 0.9 83.8 6 88 C12.3 92.7 18.7 97.4 25 102 C28.3 104.4 31.5 106.8 34.8 109.2 C42.5 114.9 50.2 120.5 58 126 C60.9 128.1 63.8 130.2 66.6 132.2 C76.3 139.3 86.2 146.1 96 153 C85.5 140.7 73.3 130.5 61 120 C59.1 118.3 57.2 116.6 55.3 114.8 C51.8 111.6 48.2 108.5 44.5 105.5 C38.8 100.8 33.4 95.9 28 91 C24.3 88 20.7 85 17 82 C3.7 71 0.1 59.9 -2 43 C-2.1 37.7 -2.2 32.5 -2.2 27.2 C-2.2 24.4 -2.2 21.6 -2.2 18.8 C-2 12.2 -1.4 6.4 0 0 Z " fill="#DEA441" transform="translate(198,204)"></path>
  <path d="M0 0 C4 2 4 2 9.6 6 C27.5 18.1 47.4 29.8 69.4 30.4 C78.1 30.8 86.4 31.4 95 33 C93.4 31.4 91.7 29.8 90.1 28.2 C82.9 20.8 83 14.1 83 4 C88 9 88 9 93 15 C101.3 22.7 110.1 28.6 120 33.9 C130.1 39.5 139.2 45.6 146 55 C146 57.6 146 60.3 146 63 C145 62.7 145 62.7 140 61 C139 68 139 68 139 70 C140.6 68.7 142.3 67.4 144 66 C153.5 67.9 158.5 73.3 164 81 C167.9 92.6 166 101 161 112 C160 113 159 114 158 115 C157.3 113.5 157.3 113.5 154 106 C142.2 96.1 130 95.5 115 96 C105.8 98.2 105.8 98.2 104 100 C107.3 100.3 110.6 100.7 114 101 C111 104 111 104 106.8 107.2 C99.3 113.2 94.3 119.4 90 128 C90 128.7 90 129.3 90 130 C93.3 128 96.6 126 100 124 C103.5 138.1 94.6 157 88.2 169.3 C82 179.2 74.9 188.4 67 197 C66.7 197 66.3 197 66 197 C66 190.1 66 183.1 66 176 C55 193 48.2 209.8 46 230 C41 227.5 40.4 219.6 38.7 214.6 C31.1 189.5 32.9 165.3 42 141 C35.2 146.9 30.4 152.8 25 160 C24 161 23 162 22 163 C20.7 140.8 29.9 119.2 40 100 C39.2 100.6 39.2 100.6 35.3 103.8 C31.9 106.5 28.4 109.2 25 112 C23 114.3 21 116.6 19 119 C16 106.9 24.3 93.2 30 83 C33.5 77.9 37.2 72.9 41 68 C40.3 67.9 40.3 67.9 36.7 67.4 C24.4 64.3 16 56.4 9 46 C9 45.3 9 44.7 9 44 C13.7 45 18.4 46.1 23.2 47.1 C28 48 28 48 35 48 C33.5 46.8 32 45.6 30.5 44.4 C28.7 43 26.9 41.5 25 40 C23.7 38.9 22.3 37.9 20.9 36.8 C10 26.3 4 14.4 0 0 Z " fill="#F9E7C6" transform="translate(313,168)"></path>
  <path d="M0 0 C0 3 -0.2 6 -0.3 8.9 C0.4 24.5 8.9 33.6 19.1 44.5 C34 60.8 38.4 74.2 38.3 95.9 C37.8 108 34.3 118.4 30.2 129.8 C27.3 139.2 26.8 146.8 29.4 156.2 C34.8 166.1 43.4 174 51.8 181.3 C67 194.7 79.7 210.3 81.4 231.3 C81.4 247.4 79.1 260.7 71 275 C69.4 276.6 67.7 278.3 66 280 C66.2 279.3 66.2 279.3 67.1 275.5 C73 248.9 74.4 224.1 60 200 C54.9 193.9 50.5 190 43 187 C32.9 186.2 27.2 187 19 193 C18.7 187.7 18.3 182.4 18 177 C17.5 178.4 17.1 179.7 16.6 181.1 C11 196.7 4.6 211.6 -2.6 226.5 C-14.3 251.1 -24.3 275.2 -28.9 302.3 C-30.5 309.2 -33.3 311.8 -39 316 C-47.1 316.6 -47.1 316.6 -54 316 C-54.2 307.8 -54.3 302.7 -51 295 C-57.4 300.3 -59.6 303.1 -60.7 311.4 C-60.8 312.9 -60.9 314.4 -61 316 C-65.6 316 -70.2 316 -75 316 C-75.4 300.1 -75.4 300.1 -70 292 C-76.3 296.2 -78 298.2 -81 305 C-81.8 311.1 -81.8 311.1 -82 316 C-84.6 316 -87.3 316 -90 316 C-92 314 -92 314 -92.5 309.1 C-91.9 301.7 -89.9 297.3 -86 291 C-78 285 -78 285 -69 282 C-59.3 257.8 -55.9 230.6 -52 205 C-51.6 202.7 -51.2 200.5 -50.9 198.1 C-49.5 185.1 -50 172 -50.2 158.9 C-50.3 138.4 -48.1 120.4 -33 105 C-33 110.6 -36 115.8 -38 121 C-40.7 131.8 -41 141.6 -40.7 152.7 C-40.1 180.2 -43.7 206 -49 233 C-49.2 233.9 -49.2 233.9 -50 238.2 C-52.8 253.2 -56 267.6 -61 282 C-57.7 282 -54.4 282 -51 282 C-44.3 283.6 -39.3 285.9 -33 289 C-32.7 286.4 -32.3 283.7 -32 281 C-23.9 252.7 -12.7 225.8 -0.7 198.9 C14.3 164.4 31.7 119.8 21 82 C23 83.3 25 84.6 27 86 C22.3 73.1 15.2 64 6 54 C5 52.4 4 50.7 3 49 C7 49.7 10.9 50.3 15 51 C14.2 50 14.2 50 9.9 45.2 C-0.1 33 -7.2 22.4 -6 6 C-2 1 -2 1 0 0 Z " fill="#F3E3C4" transform="translate(442,276)"></path>
  <path d="M0 0 C17 13.6 24 29.7 27 51 C28 81.2 24.5 108.5 3.8 131.8 C-5.5 140 -17.2 147 -30 147 C-29.3 145.4 -28.7 143.7 -28 142 C-27.3 139.9 -26.5 137.7 -25.8 135.5 C-20.9 127.1 -17.1 126.7 -8 124 C4 116.2 11.1 103.7 14.1 89.8 C16.1 76.7 17.3 62 11 50 C6 44 6 44 0 43 C-0.7 43 -1.3 43 -2 43 C-2.7 46 -3.3 48.9 -4 52 C-4.7 52 -5.3 52 -6 52 C-12.7 42.9 -14.8 38.4 -14 27 C-8 22 -8 22 -5 22 C-10 16 -10 16 -17 13 C-25 13 -25 13 -31 17 C-35.5 23.7 -35.5 26.2 -35 34 C-34.7 35.6 -34.3 37.3 -34 39 C-40.1 32.9 -42.8 28.2 -43.6 19.6 C-42.9 12.2 -41.5 8.8 -37 3 C-25.4 -5.8 -13.3 -6.5 0 0 Z " fill="#F5E4C3" transform="translate(548,419)"></path>
  <path d="M0 0 C18.2 27.2 14.4 83.5 10 114 C9.8 116.5 9.5 119 9.2 121.6 C7.9 128.3 6 131.6 2 137 C1 140 0 142.9 -1 146 C-4.3 146 -7.6 146 -11 146 C-11 137 -11 137 -7 129 C-12 132 -12 132 -16 139 C-16.3 141.3 -16.7 143.6 -17 146 C-21.6 146 -26.2 146 -31 146 C-31 137.4 -30.8 132.2 -26 125 C-33 129.7 -35.5 132.6 -37.2 140.9 C-37.5 142.6 -37.7 144.3 -38 146 C-41.3 146 -44.6 146 -48 146 C-50 142 -50 142 -50 134 C-47 126.4 -43.6 121.7 -37 117 C-29.4 114.2 -22.8 113.6 -14.7 113.8 C-13.6 113.8 -13.6 113.8 -8.4 113.8 C-3 114 -3 114 2 115 C4 86.5 3.5 58.1 -0.2 29.8 C-1.1 19.6 -0.7 10.2 0 0 Z " fill="#F3E3C3" transform="translate(322,440)"></path>
  <path d="M0 0 C9.5 1.9 14.5 7.3 20 15 C23.9 26.6 22 35 17 46 C16 47 15 48 14 49 C12.7 46 11.4 43.1 10 40 C-1.9 30.1 -14 29.7 -29 30 C-32 30.7 -34.9 31.3 -38 32 C-32.8 25.5 -26.6 21.1 -20 16 C-17.1 13.7 -14.2 11.3 -11.4 9 C-7.6 5.9 -3.9 2.9 0 0 Z " fill="#DDA543" transform="translate(457,234)"></path>
  <path d="M0 0 C-1.2 1.2 -2.4 2.5 -3.7 3.8 C-12.7 14.7 -13.7 24 -13 38 C-9.9 50.5 -4.5 60.9 2 72 C2.7 73.2 2.7 73.2 6 79 C-6.8 72.6 -15.3 58.7 -20.5 45.9 C-23.5 36 -24.3 26.7 -21.4 16.6 C-17.6 9.4 -9.5 -3.2 0 0 Z " fill="#EFE0C2" transform="translate(308,468)"></path>
  <path d="M0 0 C6 5 6 5 7 8 C1 6 1 6 -1 5 C-11.2 4.5 -15.1 4.4 -24 10 C-28.7 16.6 -29.7 22 -30 30 C-34.3 30 -38.6 30 -43 30 C-43 18.1 -41.3 11.3 -33 3 C-22.2 -4.2 -11.9 -5.1 0 0 Z " fill="#F2E3C3" transform="translate(471,555)"></path>
  <path d="M0 0 C1.3 1 2.6 2 4 3 C4 29.2 -2.3 57.5 -8 83 C-8.3 83.2 -8.3 83.2 -10 84 C-10.7 62.9 -6.9 41.8 -3.9 20.9 C-3.6 19.1 -3.3 17.3 -3.1 15.4 C-1.1 2.3 -1.1 2.3 0 0 Z " fill="#ECDFC3" transform="translate(370,475)"></path>
  <path d="M0 0 C9.4 9.4 17.7 19.7 26 30 C27.1 31.4 28.2 32.7 29.3 34.1 C42 49.6 42 49.6 42 52 C20.9 43.6 10.3 23.4 1 4 C0.7 2.7 0.3 1.4 0 0 Z " fill="#EDE0C4" transform="translate(344,426)"></path>
  <path d="M0 0 C15 0.6 28.1 3.1 39 14 C39 14.7 39 15.3 39 16 C36 16.3 33.1 16.7 30 17 C29.3 17.3 29.3 17.3 26 19 C20 19 20 19 14 14 C13.7 12 13.3 10 13 8 C10.7 7.3 8.4 6.7 6 6 C4 4.3 2 2.7 0 1 C0 0.7 0 0.3 0 0 Z " fill="#25272B" transform="translate(393,222)"></path>
</svg>